<?xml version="1.0" standalone="no"?>
<!DOCTYPE svg PUBLIC "-//W3C//DTD SVG 20010904//EN"
 "http://www.w3.org/TR/2001/REC-SVG-20010904/DTD/svg10.dtd">
<svg version="1.0" xmlns="http://www.w3.org/2000/svg"
 width="512.000000pt" height="512.000000pt" viewBox="0 0 512.000000 512.000000"
 preserveAspectRatio="xMidYMid meet">
<metadata>
Created by potrace 1.14, written by Peter Selinger 2001-2017
</metadata>
<g transform="translate(0.000000,512.000000) scale(0.100000,-0.100000)"
fill="#000000" stroke="none">
<path d="M1865 5018 c-40 -21 -45 -39 -45 -145 l0 -103 -154 0 -155 0 -20 -26
c-18 -23 -21 -41 -21 -125 l0 -99 -90 0 c-83 0 -93 -2 -115 -25 l-25 -24 0
-246 0 -245 -35 0 -35 0 0 70 c0 62 -3 74 -25 95 l-24 25 -381 0 -381 0 -24
-25 c-22 -21 -25 -33 -25 -94 l0 -69 -91 -4 c-85 -3 -92 -5 -115 -31 l-24 -28
0 -1178 c0 -1146 1 -1179 19 -1202 l19 -24 730 -3 729 -2 184 69 c101 38 234
90 294 116 161 68 145 71 145 -24 0 -65 3 -81 15 -81 13 0 15 -69 15 -561 l0
-561 30 -29 30 -30 220 3 c213 3 220 4 242 26 l23 23 3 578 c2 377 -1 587 -8
605 -15 42 -63 56 -185 56 l-105 0 0 93 0 92 133 67 c441 223 965 574 1323
885 34 29 63 53 66 53 3 0 2 -21 -2 -47 -9 -56 0 -85 32 -107 31 -22 62 -20
92 7 24 20 28 38 51 194 36 254 41 249 -213 238 -175 -7 -176 -7 -204 -35 -33
-33 -36 -68 -9 -101 15 -19 32 -25 80 -29 l60 -5 -82 -69 -82 -69 -5 531 -5
531 -23 23 c-19 20 -35 23 -112 26 l-90 4 0 59 c0 63 -18 112 -45 123 -9 3
-186 6 -394 6 l-378 0 -21 -23 c-18 -19 -22 -35 -22 -95 l0 -72 -35 0 -35 0 0
236 c0 303 0 303 -142 304 l-86 0 -4 106 c-4 146 -2 144 -199 144 l-149 0 0
101 c0 98 -1 101 -29 130 -31 31 -53 35 -86 17z m305 -453 l0 -45 -270 0 -270
0 0 45 0 45 270 0 270 0 0 -45z m-1160 -570 c0 -13 -37 -15 -270 -15 -233 0
-270 2 -270 15 0 13 37 15 270 15 233 0 270 -2 270 -15z m2310 0 c0 -13 -36
-15 -265 -15 -229 0 -265 2 -265 15 0 13 36 15 265 15 229 0 265 -2 265 -15z
m-1500 -105 l0 -90 -95 0 -95 0 0 90 0 90 95 0 95 0 0 -90z m350 0 l0 -90 -95
0 -95 0 0 90 0 90 95 0 95 0 0 -90z m-930 -1150 l0 -1070 -500 0 -500 0 0
1070 0 1070 500 0 500 0 0 -1070z m2310 532 l0 -538 -30 -22 -30 -23 0 306 0
306 -25 24 -24 25 -380 0 -380 0 -28 -24 -28 -24 0 -549 c0 -301 4 -560 8
-575 8 -24 5 -28 -32 -48 l-41 -20 0 850 0 850 495 0 495 0 0 -538z m-1730
268 l0 -90 -95 0 -95 0 0 90 0 90 95 0 95 0 0 -90z m350 0 l0 -90 -95 0 -95 0
0 90 0 90 95 0 95 0 0 -90z m-350 -350 l0 -90 -95 0 -95 0 0 90 0 90 95 0 95
0 0 -90z m350 0 l0 -90 -95 0 -95 0 0 90 0 90 95 0 95 0 0 -90z m810 -95 l0
-95 -95 0 -95 0 0 95 0 95 95 0 95 0 0 -95z m350 0 l0 -95 -95 0 -95 0 0 95 0
95 95 0 95 0 0 -95z m-350 -350 l0 -95 -95 0 -95 0 0 95 0 95 95 0 95 0 0 -95z
m350 0 l0 -95 -95 0 -95 0 0 95 0 95 95 0 95 0 0 -95z m-350 -329 l0 -74 -36
-21 c-25 -15 -52 -21 -95 -21 l-59 0 0 95 0 95 95 0 95 0 0 -74z m200 54 c-32
-25 -40 -25 -40 0 0 16 7 20 33 20 l32 0 -25 -20z m-1084 -44 c18 -13 19 -30
22 -270 l3 -255 -38 -19 c-36 -19 -390 -162 -399 -162 -2 0 -4 153 -4 340 0
327 1 341 20 360 19 19 33 20 198 20 138 0 183 -3 198 -14z m514 -1376 l0
-480 -110 0 -110 0 0 480 0 480 110 0 110 0 0 -480z"/>
<path d="M335 3325 l-25 -24 0 -559 0 -559 26 -24 26 -24 378 0 378 0 26 24
26 24 0 559 0 559 -25 24 -24 25 -381 0 -381 0 -24 -25z m325 -230 l0 -95 -95
0 -95 0 0 95 0 95 95 0 95 0 0 -95z m350 0 l0 -95 -95 0 -95 0 0 95 0 95 95 0
95 0 0 -95z m-350 -350 l0 -95 -95 0 -95 0 0 95 0 95 95 0 95 0 0 -95z m350 0
l0 -95 -95 0 -95 0 0 95 0 95 95 0 95 0 0 -95z m-350 -350 l0 -95 -95 0 -95 0
0 95 0 95 95 0 95 0 0 -95z m350 0 l0 -95 -95 0 -95 0 0 95 0 95 95 0 95 0 0
-95z"/>
<path d="M3702 2450 c-46 -19 -52 -57 -52 -358 l0 -279 -52 -36 c-29 -20 -65
-46 -80 -57 l-28 -22 0 172 0 172 -29 29 -29 29 -217 0 -217 0 -29 -29 -29
-30 2 -791 3 -792 28 -24 c28 -24 31 -24 238 -24 l210 0 49 -49 c192 -192 488
-295 753 -261 383 48 686 313 789 688 30 110 30 344 0 454 -71 261 -250 482
-487 601 -67 33 -197 73 -267 82 l-58 7 0 234 c0 232 0 233 -24 261 l-24 28
-214 2 c-117 1 -223 -2 -236 -7z m338 -335 c0 -132 -3 -176 -12 -179 -7 -2
-49 -10 -93 -19 -44 -8 -88 -18 -97 -22 -17 -7 -18 6 -18 194 l0 201 110 0
110 0 0 -175z m-720 -409 l0 -224 -29 -58 c-73 -149 -105 -326 -89 -504 8 -89
44 -223 79 -292 11 -21 19 -42 19 -48 0 -7 -33 -10 -97 -8 l-98 3 -3 678 -2
677 110 0 110 0 0 -224z m1008 37 c46 -13 102 -33 125 -45 145 -73 274 -202
342 -342 63 -128 79 -197 79 -341 0 -145 -16 -213 -80 -345 -40 -80 -61 -108
-138 -185 -102 -101 -170 -145 -287 -186 -199 -71 -410 -56 -600 42 -479 248
-554 914 -141 1255 200 165 453 218 700 147z"/>
<path d="M3930 1677 c-291 -87 -482 -328 -497 -627 -6 -132 12 -222 66 -334
73 -148 178 -252 326 -322 100 -48 174 -64 290 -64 125 0 206 19 315 72 68 34
102 59 170 128 140 140 204 290 204 480 0 126 -18 202 -76 320 -58 120 -177
238 -298 298 -111 54 -190 72 -320 71 -79 0 -124 -6 -180 -22z m314 -152 c178
-47 324 -183 376 -353 27 -87 27 -227 0 -314 -53 -173 -214 -321 -388 -357
-270 -56 -529 95 -618 359 -13 39 -19 84 -19 155 0 154 48 269 156 375 128
126 322 179 493 135z"/>
<path d="M4066 1459 c-17 -13 -26 -30 -26 -49 0 -21 -6 -29 -23 -34 -40 -10
-106 -64 -126 -105 -43 -84 -36 -172 20 -236 44 -50 86 -72 176 -94 117 -28
143 -44 143 -89 0 -17 -9 -27 -35 -38 -74 -31 -174 -6 -190 48 -12 39 -46 68
-80 68 -139 0 -86 -202 72 -272 33 -15 43 -24 43 -43 0 -29 43 -65 79 -65 37
0 68 25 76 59 5 23 19 35 71 61 88 43 124 97 124 184 0 133 -70 201 -250 242
-86 19 -125 49 -111 86 23 63 166 62 186 -2 9 -29 54 -60 86 -60 33 0 66 28
75 64 13 52 -70 162 -141 187 -26 10 -35 20 -40 45 -11 61 -78 83 -129 43z"/>
<path d="M1550 1281 l-30 -29 0 -392 0 -392 30 -29 30 -30 221 3 c218 3 221 3
240 27 18 22 19 44 19 421 0 377 -1 399 -19 421 -19 24 -22 24 -240 27 l-221
3 -30 -30z m310 -421 l0 -280 -85 0 -85 0 0 280 0 280 85 0 85 0 0 -280z"/>
</g>
</svg>
